<svg width="64" height="64" version="1.1" xmlns="http://www.w3.org/2000/svg" desc="Created with imagetracer.js version 1.2.6" ><path fill="rgb(0,0,0)" stroke="rgb(0,0,0)" stroke-width="1" opacity="0" d="M 0 0 L 64 0 L 64 23 L 58.5 21 L 46 20 L 39 4 L 27.5 2 L 25 3 L 19 16.5 L 16.5 19 L 5.5 20 L 0.5 22 L 0 0 Z " /><path fill="rgb(0,0,0)" stroke="rgb(0,0,0)" stroke-width="1" opacity="0" d="M 0.5 29 L 11 39.5 L 11 45.5 L 9 52.5 L 9 57.5 L 10 60 L 21.5 62 L 31.5 56 L 34.5 56 L 42.5 61 L 51.5 62 L 54 61 Q 55.6 58.9 55 53.5 L 53 46.5 L 53 40.5 L 64 30.5 L 64 64 L 0 64 L 0.5 29 Z " /><path fill="rgb(249,221,251)" stroke="rgb(249,221,251)" stroke-width="1" opacity="1" d="M 6.5 30 L 8.5 33 L 6.5 30 Z " /><path fill="rgb(249,221,251)" stroke="rgb(249,221,251)" stroke-width="1" opacity="1" d="M 38.5 32 L 41 32.5 L 38.5 33 L 38.5 32 Z " /><path fill="rgb(249,145,221)" stroke="rgb(249,145,221)" stroke-width="1" opacity="0.9921568627450981" d="M 33.5 6 L 37 7.5 L 42 18.5 L 39 19 L 33.5 6 Z " /><path fill="rgb(249,145,221)" stroke="rgb(249,145,221)" stroke-width="1" opacity="0.9921568627450981" d="M 58.5 24 L 61 25 L 61 27.5 L 50 39.5 L 50 47.5 L 52 57.5 L 48 59 L 46 39.5 L 57 28.5 L 58.5 24 Z " /><path fill="rgb(249,145,221)" stroke="rgb(249,145,221)" stroke-width="1" opacity="0.9921568627450981" d="M 53.5 28 L 48.5 34 L 53.5 28 Z " /><path fill="rgb(249,145,221)" stroke="rgb(249,145,221)" stroke-width="1" opacity="0.9921568627450981" d="M 10.5 49 L 13 49.5 Q 10.9 52.8 10.5 49 Z " /><path fill="rgb(249,145,221)" stroke="rgb(249,145,221)" stroke-width="1" opacity="0.9921568627450981" d="M 27.5 53 L 30 53.5 L 18.5 59 L 18.5 58 L 27.5 53 Z " /><path fill="rgb(250,186,243)" stroke="rgb(250,186,243)" stroke-width="1" opacity="0.996078431372549" d="M 47.5 34 L 44.5 38 L 47.5 34 Z " /><path fill="rgb(250,186,243)" stroke="rgb(250,186,243)" stroke-width="1" opacity="0.996078431372549" d="M 43.5 39 L 44 41.5 L 43 41.5 L 43.5 39 Z " /><path fill="rgb(255,66,214)" stroke="rgb(255,66,214)" stroke-width="1" opacity="0.2980392156862745" d="M 27.5 2 L 31 2.5 L 25.5 4 L 25.5 3 L 27.5 2 Z " /><path fill="rgb(255,66,214)" stroke="rgb(255,66,214)" stroke-width="1" opacity="0.2980392156862745" d="M 33.5 3 L 39 4 L 40 6.5 L 36.5 4 Q 32.5 4.8 33.5 3 Z " /><path fill="rgb(255,66,214)" stroke="rgb(255,66,214)" stroke-width="1" opacity="0.2980392156862745" d="M 40.5 8 L 46 19.5 L 45 19.5 L 40 9.5 L 40.5 8 Z " /><path fill="rgb(255,66,214)" stroke="rgb(255,66,214)" stroke-width="1" opacity="0.2980392156862745" d="M 22.5 9 L 23 10.5 L 19 19 L 17 18.5 L 22.5 9 Z " /><path fill="rgb(255,66,214)" stroke="rgb(255,66,214)" stroke-width="1" opacity="0.2980392156862745" d="M 12.5 19 L 16 19.5 L 12.5 20 L 12.5 19 Z " /><path fill="rgb(255,66,214)" stroke="rgb(255,66,214)" stroke-width="1" opacity="0.2980392156862745" d="M 5.5 20 L 10 20.5 L 5.5 21 L 5.5 20 Z " /><path fill="rgb(255,66,214)" stroke="rgb(255,66,214)" stroke-width="1" opacity="0.2980392156862745" d="M 1.5 21 L 3 21.5 L 1 22 L 0.5 24 L 0 22.5 L 1.5 21 Z " /><path fill="rgb(255,66,214)" stroke="rgb(255,66,214)" stroke-width="1" opacity="0.2980392156862745" d="M 55.5 21 L 59 21.5 L 55.5 22 L 55.5 21 Z " /><path fill="rgb(255,66,214)" stroke="rgb(255,66,214)" stroke-width="1" opacity="0.2980392156862745" d="M 60.5 22 L 64 23 L 63.5 25 L 60.5 22 Z " /><path fill="rgb(255,66,214)" stroke="rgb(255,66,214)" stroke-width="1" opacity="0.2980392156862745" d="M 0.5 27 L 12 39.5 L 12 41.5 L 11 41.5 L 11 39.5 L 0 28.5 L 0.5 27 Z " /><path fill="rgb(255,66,214)" stroke="rgb(255,66,214)" stroke-width="1" opacity="0.2980392156862745" d="M 63.5 28 L 64 29.5 L 53 40.5 L 52.5 45 L 52 40.5 L 63.5 28 Z " /><path fill="rgb(255,66,214)" stroke="rgb(255,66,214)" stroke-width="1" opacity="0.2980392156862745" d="M 53.5 47 L 54 50.5 L 53 50.5 L 53.5 47 Z " /><path fill="rgb(255,66,214)" stroke="rgb(255,66,214)" stroke-width="1" opacity="0.2980392156862745" d="M 54.5 53 L 55 58.5 L 54 58.5 L 54.5 53 Z " /><path fill="rgb(255,66,214)" stroke="rgb(255,66,214)" stroke-width="1" opacity="0.2980392156862745" d="M 9.5 55 L 10 57.5 L 9 57.5 L 9.5 55 Z " /><path fill="rgb(255,66,214)" stroke="rgb(255,66,214)" stroke-width="1" opacity="0.2980392156862745" d="M 35.5 56 L 46 60.5 L 42.5 61 L 36.5 58 L 35.5 56 Z " /><path fill="rgb(255,66,214)" stroke="rgb(255,66,214)" stroke-width="1" opacity="0.2980392156862745" d="M 28.5 57 L 27.5 59 L 23.5 61 L 24.5 59 L 28.5 57 Z " /><path fill="rgb(255,66,214)" stroke="rgb(255,66,214)" stroke-width="1" opacity="0.2980392156862745" d="M 10.5 59 L 16 60.5 L 12.5 61 L 10.5 59 Z " /><path fill="rgb(255,66,214)" stroke="rgb(255,66,214)" stroke-width="1" opacity="0.2980392156862745" d="M 52.5 60 L 54 60.5 L 48.5 62 L 48.5 61 L 52.5 60 Z " /><path fill="rgb(255,66,214)" stroke="rgb(255,66,214)" stroke-width="1" opacity="0.2980392156862745" d="M 18.5 61 L 22 61.5 L 18.5 62 L 18.5 61 Z " /><path fill="rgb(248,202,252)" stroke="rgb(248,202,252)" stroke-width="1" opacity="1" d="M 29.5 6 L 37.5 21 L 44.5 23 L 50.5 23 L 55 25.5 L 47.5 34 Q 39.9 30.6 27.5 32 L 15.5 38 L 5 27.5 L 5 24 L 7.5 23 L 18.5 22 L 23 20 L 29.5 6 Z " /><path fill="rgb(254,249,254)" stroke="rgb(254,249,254)" stroke-width="1" opacity="0.9568627450980393" d="M 28.5 5 L 28 6.5 L 21.5 20 L 22 18.5 L 28.5 5 Z " /><path fill="rgb(254,249,254)" stroke="rgb(254,249,254)" stroke-width="1" opacity="0.9568627450980393" d="M 3.5 24 Q 3.9 29.1 8 30.5 L 3 26.5 L 3.5 24 Z " /><path fill="rgb(254,249,254)" stroke="rgb(254,249,254)" stroke-width="1" opacity="0.9568627450980393" d="M 13.5 37 Q 17.3 38.3 16 44.5 L 13.5 58 Q 10.8 56.6 12 52 L 9.5 53 L 10.5 51 Q 13.8 52.1 13 49.5 L 10 48.5 L 10.5 46 L 12.5 47 Q 15.8 45.3 14 38.5 L 13.5 37 Z " /><path fill="rgb(254,81,215)" stroke="rgb(254,81,215)" stroke-width="1" opacity="1" d="M 32.5 5 L 31.5 7 L 32.5 5 Z " /><path fill="rgb(254,81,215)" stroke="rgb(254,81,215)" stroke-width="1" opacity="1" d="M 54.5 23 L 55.5 25 L 54.5 23 Z " /><path fill="rgb(254,81,215)" stroke="rgb(254,81,215)" stroke-width="1" opacity="1" d="M 2.5 27 L 10.5 36 L 2.5 27 Z " /><path fill="rgb(254,81,215)" stroke="rgb(254,81,215)" stroke-width="1" opacity="1" d="M 60.5 29 L 51.5 39 L 60.5 29 Z " /><path fill="rgb(254,81,215)" stroke="rgb(254,81,215)" stroke-width="1" opacity="1" d="M 44.5 38 L 46 41.5 L 45 41.5 L 44.5 38 Z " /><path fill="rgb(254,81,215)" stroke="rgb(254,81,215)" stroke-width="1" opacity="1" d="M 25.5 52 L 26.5 54 L 25.5 52 Z " /><path fill="rgb(254,81,215)" stroke="rgb(254,81,215)" stroke-width="1" opacity="1" d="M 23.5 53 L 24.5 55 L 23.5 53 Z " /><path fill="rgb(254,81,215)" stroke="rgb(254,81,215)" stroke-width="1" opacity="1" d="M 52.5 55 L 53 57.5 L 52 57.5 L 52.5 55 Z " /><path fill="rgb(254,81,215)" stroke="rgb(254,81,215)" stroke-width="1" opacity="1" d="M 16.5 57 L 17.5 59 L 16.5 57 Z " /><path fill="rgb(254,66,213)" stroke="rgb(254,66,213)" stroke-width="1" opacity="0.9764705882352941" d="M 27.5 3 L 36.5 4 L 40 7.5 L 45 20 L 59.5 22 L 64 25.5 L 63 29.5 L 52 40.5 L 52 44.5 L 54 51.5 L 54 60 Q 51.9 61.6 46.5 61 L 32.5 55 L 22.5 61 L 16.5 61 L 10 59 L 10.5 53 L 12.5 58 L 16.5 58 L 29.5 51 L 41.5 58 L 46 58 L 44 39.5 L 56 26.5 L 56 24.5 L 54.5 23 L 39.5 21 L 37 18.5 L 30.5 5 L 28.5 4 L 26 6.5 L 20 20 L 3.5 23 L 2 24.5 L 2 27.5 L 14 40.5 L 12.5 46 L 12 39.5 L 1 28.5 L 0 24.5 L 1 22 L 19 19 L 25 4 L 27.5 3 Z M 33 5 L 38 19 L 43 20 L 38 8 Q 37 4 33 5 Z M 57 24 L 57 28 L 45 40 L 48 56 L 47 58 Q 46 60 50 59 Q 51 62 53 58 L 50 43 L 51 40 L 61 30 L 62 26 Q 61 23 57 24 Z M 29 52 L 17 59 L 20 60 L 31 54 L 29 52 Z " /><path fill="rgb(251,213,247)" stroke="rgb(251,213,247)" stroke-width="1" opacity="1" d="M 3.5 27 L 5.5 30 L 3.5 27 Z " /><path fill="rgb(248,231,251)" stroke="rgb(248,231,251)" stroke-width="1" opacity="1" d="M 8.5 31 L 16.5 38 Q 23.6 31.6 37.5 32 L 47 34.5 Q 42 35.5 43 42.5 L 45 49.5 L 45 56.5 Q 43.8 59.3 42.5 57 L 27.5 50 L 14 57 L 16 39.5 L 9 33.5 L 8.5 31 Z " /><path fill="rgb(252,107,219)" stroke="rgb(252,107,219)" stroke-width="1" opacity="0.996078431372549" d="M 41.5 16 L 43 19.5 L 42 19.5 L 41.5 16 Z " /><path fill="rgb(252,107,219)" stroke="rgb(252,107,219)" stroke-width="1" opacity="0.996078431372549" d="M 37.5 19 L 38.5 21 L 37.5 19 Z " /><path fill="rgb(252,107,219)" stroke="rgb(252,107,219)" stroke-width="1" opacity="0.996078431372549" d="M 57.5 24 L 58 26.5 L 57 26.5 L 57.5 24 Z " /><path fill="rgb(252,107,219)" stroke="rgb(252,107,219)" stroke-width="1" opacity="0.996078431372549" d="M 61.5 25 L 62 27.5 L 51 37.5 L 61 27.5 L 61.5 25 Z " /><path fill="rgb(252,107,219)" stroke="rgb(252,107,219)" stroke-width="1" opacity="0.996078431372549" d="M 56.5 28 L 46.5 39 L 56.5 28 Z " /><path fill="rgb(252,107,219)" stroke="rgb(252,107,219)" stroke-width="1" opacity="0.996078431372549" d="M 11.5 36 L 12.5 38 L 11.5 36 Z " /><path fill="rgb(252,107,219)" stroke="rgb(252,107,219)" stroke-width="1" opacity="0.996078431372549" d="M 50.5 45 L 51 47.5 L 50 47.5 L 50.5 45 Z " /><path fill="rgb(252,107,219)" stroke="rgb(252,107,219)" stroke-width="1" opacity="0.996078431372549" d="M 51.5 51 L 52 53.5 L 51 53.5 L 51.5 51 Z " /><path fill="rgb(252,107,219)" stroke="rgb(252,107,219)" stroke-width="1" opacity="0.996078431372549" d="M 11.5 54 L 12 56.5 L 11 56.5 L 11.5 54 Z " /></svg>